<svg xmlns="http://www.w3.org/2000/svg" viewBox="0 0 533.5 544.3">
  <path fill="#4285F4" d="M533.5 278.4c0-17.4-1.6-34.1-4.6-50.4H272v95.3h146.9c-6.3 34-25 62.8-53.4 82.2v68.2h86.1c50.4-46.3 81.9-114.6 81.9-195.3z"/>
  <path fill="#34A853" d="M272 544.3c72 0 132.3-23.9 176.4-64.8l-86.1-68.2c-23.9 16.1-54.6 25.6-90.3 25.6-69.3 0-128.1-46.8-149.1-109.6H35.1v68.9C78.8 486.1 168.8 544.3 272 544.3z"/>
  <path fill="#FBBC04" d="M122.9 327.3c-4.6-13.8-7.2-28.6-7.2-43.7s2.6-29.9 7.2-43.7v-68.9H35.1C12.7 212.9 0 247.8 0 283.6s12.7 70.7 35.1 112.6l87.8-68.9z"/>
  <path fill="#EA4335" d="M272 214.1c39.1 0 74.1 13.5 101.8 39.9l76.4-76.4C404.3 117.5 344 92.9 272 92.9c-103.2 0-193.2 58.1-236.9 145.8l87.8 68.9c21-62.8 79.8-110.6 149.1-110.6z"/>
</svg>
